#!OML:ASF F:\VICON\USERDATA\INSTALL\Justin_Nancy\Justin_Nancy.ASF
:FULLY-SPECIFIED
:DEGREES
261
root -8.34296 17.4071 4.39214 -0.457378 3.41191 2.77662
lowerback 6.47867 -1.00438 -5.50097
upperback -0.28694 -1.69914 1.63039
thorax -3.72769 -0.722481 4.95533
lowerneck -18.2632 -3.61652 -9.03345
upperneck 23.3822 -3.37171 3.77026
head 10.7914 -1.89236 2.37482
rclavicle -4.22417e-016 3.18055e-015
rhumerus -33.5934 -18.0124 -75.4306
rradius 27.869
rwrist 10.633
rhand -13.8032 12.4894
rfingers 7.12502
rthumb 12.3188 -17.1277
lclavicle -4.22417e-016 3.18055e-015
lhumerus -29.3187 6.42062 85.5263
lradius 34.7307
lwrist -4.83515
lhand -17.1915 27.5009
lfingers 7.12502
lthumb 9.05058 57.2867
rfemur -26.1914 2.30847 13.0001
rtibia 34.4344
rfoot -6.53143 -8.91702
rtoes -3.45396
lfemur -5.67803 -3.69347 -29.2856
ltibia 26.1416
lfoot -15.8898 -9.13376
ltoes 10.0897
262
root -8.34147 17.4077 4.51475 -0.357126 3.6408 2.78496
lowerback 6.39776 -0.96179 -5.51115
upperback -0.29225 -1.64103 1.57104
thorax -3.69639 -0.694848 4.89123
lowerneck -17.9472 -3.68987 -9.1242
upperneck 22.9289 -3.53428 4.00696
head 10.5818 -1.94176 2.44956
rclavicle 2.21148e-015 -1.19271e-014
rhumerus -33.4617 -18.5709 -75.2281
rradius 26.9781
rwrist 9.7346
rhand -14.4695 13.8027
rfingers 7.12502
rthumb 11.6763 -15.8519
lclavicle 2.21148e-015 -1.19271e-014
lhumerus -29.1838 6.11485 85.4828
lradius 35.0737
lwrist -4.8674
lhand -17.3023 26.2634
lfingers 7.12502
lthumb 8.94366 56.0538
rfemur -26.0982 2.82068 12.6521
rtibia 32.1671
rfoot -5.58938 -8.11456
rtoes -4.23088
lfemur -5.12832 -3.61715 -29.278
ltibia 25.7994
lfoot -16.1688 -9.26923
ltoes 9.47944
263
root -8.34016 17.4095 4.63164 -0.234403 3.83324 2.70368
lowerback 6.27807 -0.966618 -5.51096
upperback -0.28097 -1.63947 1.60275
thorax -3.6165 -0.696808 4.92037
lowerneck -18.0354 -3.69741 -9.12671
upperneck 22.867 -3.53724 4.02171
head 10.5765 -1.93945 2.4535
rclavicle 1.44367e-014 -7.95139e-016
rhumerus -33.3242 -19.0768 -74.9338
rradius 26.4085
rwrist 10.4159
rhand -14.5229 14.5686
rfingers 7.12502
rthumb 11.6249 -15.089
lclavicle 1.44367e-014 -7.95139e-016
lhumerus -28.9066 6.02392 85.4599
lradius 35.2358
lwrist -4.79424
lhand -17.3784 25.1923
lfingers 7.12502
lthumb 8.87018 54.9859
rfemur -26.0281 3.48651 12.3783
rtibia 29.9456
rfoot -4.65971 -7.35394
rtoes -5.23005
lfemur -4.62934 -3.49964 -29.1675
ltibia 25.4719
lfoot -16.3789 -9.51039
ltoes 8.94529
264
root -8.3399 17.4087 4.74365 -0.138154 4.07259 2.44669
lowerback 6.2046 -0.988966 -5.37358
upperback -0.23109 -1.65013 1.71343
thorax -3.52216 -0.708113 4.95622
lowerneck -18.6054 -3.79445 -9.06697
upperneck 23.2265 -3.59922 3.86686
head 10.8186 -1.98056 2.37667
rclavicle -5.34234e-015 7.95139e-015
rhumerus -33.2134 -19.2462 -74.7654
rradius 26.5314
rwrist 11.6144
rhand -13.8646 13.3417
rfingers 7.12502
rthumb 12.2597 -16.279
lclavicle -5.34234e-015 7.95139e-015
lhumerus -28.6606 6.18643 85.4623
lradius 35.505
lwrist -4.76479
lhand -17.2183 25.9722
lfingers 7.12502
lthumb 9.02472 55.7591
rfemur -25.8883 4.1883 12.2783
rtibia 27.7882
rfoot -3.60215 -6.56584
rtoes -5.63234
lfemur -4.13821 -3.5003 -28.8578
ltibia 25.1658
lfoot -16.5619 -9.75394
ltoes 8.60228
265
root -8.33592 17.4076 4.85699 -0.0616814 4.3124 2.35796
lowerback 6.227 -0.98132 -5.30242
upperback -0.245455 -1.63575 1.72231
thorax -3.55311 -0.700799 4.92492
lowerneck -18.4323 -3.82387 -9.27048
upperneck 22.993 -3.67558 4.18253
head 10.7153 -1.99302 2.51306
rclavicle 1.15047e-014 -5.1684e-015
rhumerus -33.2018 -19.2684 -74.7013
rradius 26.4478
rwrist 11.7126
rhand -13.1011 11.3695
rfingers 7.12502
rthumb 12.9957 -18.2057
lclavicle 1.15047e-014 -5.1684e-015
lhumerus -28.6619 6.16527 85.4434
lradius 35.8728
lwrist -4.51499
lhand -16.8417 27.098
lfingers 7.12502
lthumb 9.38804 56.8689
rfemur -25.6874 4.67674 11.9929
rtibia 25.7052
rfoot -2.4545 -5.50316
rtoes -5.05655
lfemur -3.64823 -3.62331 -28.7534
ltibia 24.8762
lfoot -16.6901 -9.94381
ltoes 9.23391
266
root -8.33366 17.406 4.96872 -0.0396432 4.56516 2.35715
lowerback 6.32972 -0.931679 -5.36068
upperback -0.236787 -1.57904 1.72232
thorax -3.60748 -0.669844 4.95612
lowerneck -18.062 -3.85008 -9.51628
upperneck 22.5604 -3.74455 4.47744
head 10.5026 -2.00795 2.64887
rclavicle -8.67198e-015 -8.34896e-015
rhumerus -33.1081 -19.2078 -74.6841
rradius 26.093
rwrist 11.1701
rhand -12.4149 9.11338
rfingers 7.12502
rthumb 13.6572 -20.4186
lclavicle -8.67198e-015 -8.34896e-015
lhumerus -28.5424 6.03279 85.4553
lradius 36.2492
lwrist -4.00103
lhand -16.2131 28.1782
lfingers 7.12502
lthumb 9.99453 57.9209
rfemur -25.5304 5.26675 11.548
rtibia 23.8278
rfoot -1.5156 -4.56224
rtoes -3.29025
lfemur -3.09476 -3.62608 -28.7268
ltibia 24.5914
lfoot -16.9564 -10.159
ltoes 9.61596
267
root -8.33091 17.4057 5.0805 0.00671796 4.75737 2.37366
lowerback 6.39484 -0.876243 -5.42992
upperback -0.206104 -1.51348 1.71448
thorax -3.61889 -0.6363 4.98285
lowerneck -18.2713 -3.95358 -9.52752
upperneck 22.5849 -3.86929 4.49426
head 10.5621 -2.0616 2.63669
rclavicle -2.59662e-014 1.86858e-014
rhumerus -33.0767 -19.3598 -74.5913
rradius 25.9075
rwrist 11.0969
rhand -12.0809 8.83549
rfingers 7.12502
rthumb 13.9791 -20.6745
lclavicle -2.59662e-014 1.86858e-014
lhumerus -28.3631 6.12329 85.4071
lradius 36.7575
lwrist -3.15671
lhand -15.6731 29.2748
lfingers 7.12502
lthumb 10.5155 58.9918
rfemur -25.5177 6.05282 11.0241
rtibia 22.2675
rfoot -0.909769 -3.95315
rtoes -3.50626
lfemur -2.56031 -3.70172 -28.7472
ltibia 24.2955
lfoot -17.1853 -10.2725
ltoes 9.71974
268
root -8.325 17.3991 5.18812 0.061957 4.84199 2.42987
lowerback 6.50995 -0.779548 -5.43628
upperback -0.223851 -1.39434 1.63792
thorax -3.7189 -0.573747 4.89906
lowerneck -18.2501 -4.06533 -9.52793
upperneck 22.5045 -4.03643 4.53227
head 10.5429 -2.13244 2.62475
rclavicle -1.80149e-014 -2.78299e-015
rhumerus -33.1342 -19.6029 -74.4971
rradius 25.8576
rwrist 11.7386
rhand -12.1852 8.98875
rfingers 7.12502
rthumb 13.8785 -20.5282
lclavicle -1.80149e-014 -2.78299e-015
lhumerus -28.3226 6.16102 85.3432
lradius 37.3323
lwrist -2.76958
lhand -15.7577 29.6062
lfingers 7.12502
lthumb 10.4339 59.3273
rfemur -25.5019 6.41162 10.6516
rtibia 21.0271
rfoot -0.482659 -3.01283
rtoes -7.08547
lfemur -2.08726 -3.58051 -28.8157
ltibia 24.0251
lfoot -17.2726 -10.4281
ltoes 9.54168
269
root -8.32051 17.3917 5.30276 0.052202 4.96118 2.37353
lowerback 5.65277 -0.641924 -5.42006
upperback 0.449793 -1.15147 1.62956
thorax -2.56673 -0.506898 4.82893
lowerneck -18.3561 -4.1959 -9.52424
upperneck 21.7939 -4.19845 4.56474
head 10.318 -2.19053 2.60302
rclavicle -2.98177e-015 -4.37326e-015
rhumerus -31.9866 -20.2054 -74.6765
rradius 25.6922
rwrist 12.4901
rhand -11.92 7.98639
rfingers 7.12502
rthumb 14.1341 -21.5129
lclavicle -2.98177e-015 -4.37326e-015
lhumerus -27.1822 6.04082 85.5242
lradius 37.5591
lwrist -2.65322
lhand -15.9826 29.1597
lfingers 7.12502
lthumb 10.217 58.8915
rfemur -25.2902 6.37771 10.6099
rtibia 20.0548
rfoot -0.150826 -1.60919
rtoes -12.5456
lfemur -1.56139 -3.74521 -28.7881
ltibia 23.8207
lfoot -17.2104 -10.3545
ltoes 9.52785
270
root -8.32025 17.3832 5.41802 0.00381623 5.11278 2.27741
lowerback 5.38083 -0.573681 -5.34852
upperback 0.720574 -1.03715 1.61448
thorax -2.14908 -0.470245 4.75505
lowerneck -18.4929 -4.25152 -9.59223
upperneck 21.6105 -4.26342 4.67193
head 10.2866 -2.2088 2.63989
rclavicle 9.91439e-015 -9.54166e-015
rhumerus -31.4376 -20.2592 -74.8686
rradius 25.5407
rwrist 12.7668
rhand -11.5211 7.15192
rfingers 7.12502
rthumb 14.5185 -22.3201
lclavicle 9.91439e-015 -9.54166e-015
lhumerus -26.6312 5.89273 85.5215
lradius 37.4823
lwrist -2.20945
lhand -15.9376 28.6131
lfingers 7.12502
lthumb 10.2603 58.3428
rfemur -25.1295 6.60396 10.551
rtibia 19.4242
rfoot -0.0669009 -0.175507
rtoes -14.6124
lfemur -1.0043 -3.92335 -28.6882
ltibia 23.6799
lfoot -17.3095 -10.3029
ltoes 9.21408
271
root -8.31813 17.3782 5.52352 0.0669522 5.30262 2.2877
lowerback 5.48148 -0.560767 -5.44405
upperback 0.682899 -1.03088 1.64406
thorax -2.24303 -0.462349 4.84233
lowerneck -18.3828 -4.3068 -9.72352
upperneck 21.4675 -4.31449 4.69253
head 10.2228 -2.24011 2.66094
rclavicle -1.98536e-014 7.95139e-016
rhumerus -31.334 -19.7689 -75.0159
rradius 25.5558
rwrist 12.7439
rhand -11.4207 7.15617
rfingers 7.12502
rthumb 14.6151 -22.3088
lclavicle -1.98536e-014 7.95139e-016
lhumerus -26.6746 6.11472 85.4838
lradius 37.6999
lwrist -1.92546
lhand -16.2292 27.1983
lfingers 7.12502
lthumb 9.97908 56.9418
rfemur -25.2263 6.81354 10.2882
rtibia 18.9907
rfoot 0.251892 1.79979
rtoes -11.9865
lfemur -0.643376 -3.96764 -28.6987
ltibia 23.6411
lfoot -17.617 -10.3588
ltoes 8.57178
272
root -8.31883 17.3692 5.62935 0.0995833 5.69556 2.2396
lowerback 5.65002 -0.589349 -5.43629
upperback 0.686482 -1.07725 1.64925
thorax -2.32804 -0.482868 4.85002
lowerneck -18.2033 -4.31598 -9.84434
upperneck 21.1849 -4.34598 4.86379
head 10.0971 -2.2429 2.73665
rclavicle -3.38679e-014 1.66979e-014
rhumerus -31.1996 -19.491 -75.218
rradius 25.5927
rwrist 12.5185
rhand -11.6347 7.84992
rfingers 7.12502
rthumb 14.409 -21.6299
lclavicle -3.38679e-014 1.66979e-014
lhumerus -26.8489 6.43683 85.3983
lradius 38.3081
lwrist -2.25849
lhand -16.1049 26.6654
lfingers 7.12502
lthumb 10.099 56.4031
rfemur -25.2018 7.04593 10.0516
rtibia 18.7186
rfoot 0.39841 3.52658
rtoes -7.89868
lfemur -0.262407 -4.11353 -28.6249
ltibia 23.6313
lfoot -17.9259 -10.441
ltoes 7.8993
273
root -8.32245 17.3615 5.74333 0.110892 6.12274 1.93454
lowerback 5.66637 -0.595006 -5.07203
upperback 0.738171 -1.06244 1.63626
thorax -2.29234 -0.480951 4.62821
lowerneck -18.1136 -4.35011 -9.85613
upperneck 21.1192 -4.4281 4.98618
head 10.0665 -2.26761 2.7707
rclavicle 1.59028e-015 -2.78299e-015
rhumerus -31.0342 -19.2964 -75.4349
rradius 25.39
rwrist 12.4698
rhand -12.2811 8.74247
rfingers 7.12502
rthumb 13.7861 -20.7807
lclavicle 1.59028e-015 -2.78299e-015
lhumerus -26.8874 6.39591 85.2768
lradius 38.7455
lwrist -2.41748
lhand -15.3089 27.847
lfingers 7.12502
lthumb 10.8668 57.5459
rfemur -25.0824 7.34398 10.1508
rtibia 18.7129
rfoot 0.198885 4.98512
rtoes -9.81697
lfemur 0.131241 -4.41705 -28.2755
ltibia 23.6007
lfoot -18.098 -10.4952
ltoes 8.23045
274
root -8.32408 17.3502 5.86154 0.134477 6.65364 1.98018
lowerback 5.64258 -0.627888 -5.06608
upperback 0.833368 -1.10484 1.56309
thorax -2.17699 -0.507932 4.5496
lowerneck -18.274 -4.42717 -9.98299
upperneck 21.2045 -4.51605 5.11795
head 10.141 -2.30173 2.82511
rclavicle 2.85753e-015 -2.10712e-014
rhumerus -30.719 -19.216 -75.5921
rradius 24.9857
rwrist 12.9397
rhand -13.0707 9.97429
rfingers 7.12502
rthumb 13.0251 -19.5991
lclavicle 2.85753e-015 -2.10712e-014
lhumerus -26.6243 6.3926 85.2244
lradius 38.8014
lwrist -2.03899
lhand -15.4456 28.5778
lfingers 7.12502
lthumb 10.735 58.2835
rfemur -25.0315 7.57389 9.81258
rtibia 18.9834
rfoot 0.0967417 6.65375
rtoes -10.7699
lfemur 0.574713 -4.72518 -28.3116
ltibia 23.5995
lfoot -18.1837 -10.5999
ltoes 8.40324
